<svg width="148" height="60" viewBox="0 0 148 60" fill="none" xmlns="http://www.w3.org/2000/svg">
<path fill-rule="evenodd" clip-rule="evenodd" d="M56.0419 44.9038C50.8686 53.9239 41.1439 60 30 60C13.4315 60 0 46.5685 0 30C0 13.4315 13.4315 0 30 0C41.0625 0 50.7264 5.98768 55.9278 14.8989L48.1778 19.3734C44.5237 13.1361 37.751 8.94738 30.0001 8.94738C18.373 8.94738 8.94743 18.373 8.94743 30C8.94743 41.6271 18.373 51.0526 30.0001 51.0526C37.8325 51.0526 44.6659 46.7755 48.292 40.4294L56.0419 44.9038Z" fill="white"/>
<path d="M60.8571 29.7857L48.6428 22.5482V37.0232L60.8571 29.7857Z" fill="white"/>
<path d="M65.8217 32.9017C65.8217 31.4754 66.1303 30.2069 66.7474 29.096C67.3645 27.9714 68.2217 27.1006 69.3188 26.4834C70.4297 25.8526 71.6845 25.5372 73.0834 25.5372C74.7977 25.5372 76.2651 25.9897 77.4857 26.8949C78.7063 27.8 79.5223 29.0343 79.9337 30.5977H76.0663C75.7783 29.9943 75.3668 29.5349 74.832 29.2194C74.3108 28.904 73.7143 28.7463 73.0423 28.7463C71.9588 28.7463 71.0811 29.1234 70.4091 29.8777C69.7371 30.632 69.4011 31.64 69.4011 32.9017C69.4011 34.1634 69.7371 35.1714 70.4091 35.9257C71.0811 36.68 71.9588 37.0572 73.0423 37.0572C73.7143 37.0572 74.3108 36.8994 74.832 36.584C75.3668 36.2686 75.7783 35.8092 76.0663 35.2057H79.9337C79.5223 36.7692 78.7063 38.0034 77.4857 38.9086C76.2651 39.8 74.7977 40.2457 73.0834 40.2457C71.6845 40.2457 70.4297 39.9372 69.3188 39.32C68.2217 38.6892 67.3645 37.8183 66.7474 36.7074C66.1303 35.5966 65.8217 34.328 65.8217 32.9017ZM94.4719 25.7017L89.473 35.3703V40.1429H85.9553V35.3703L80.9565 25.7017H84.9473L87.745 31.7497L90.5222 25.7017H94.4719ZM106.278 25.7017V28.52H102.452V40.1429H98.9338V28.52H95.1075V25.7017H106.278ZM115.408 40.1429L112.404 34.6914H111.561V40.1429H108.043V25.7017H113.947C115.086 25.7017 116.052 25.9006 116.848 26.2983C117.657 26.696 118.26 27.2446 118.658 27.944C119.056 28.6297 119.255 29.3977 119.255 30.248C119.255 31.208 118.98 32.0652 118.432 32.8194C117.897 33.5737 117.102 34.1086 116.046 34.424L119.378 40.1429H115.408ZM111.561 32.2023H113.742C114.386 32.2023 114.866 32.0446 115.182 31.7292C115.511 31.4137 115.675 30.968 115.675 30.392C115.675 29.8434 115.511 29.4114 115.182 29.096C114.866 28.7806 114.386 28.6229 113.742 28.6229H111.561V32.2023ZM124.919 25.7017V34.3417C124.919 35.2057 125.131 35.8709 125.557 36.3372C125.982 36.8034 126.606 37.0366 127.429 37.0366C128.251 37.0366 128.882 36.8034 129.321 36.3372C129.76 35.8709 129.979 35.2057 129.979 34.3417V25.7017H133.497V34.3212C133.497 35.6103 133.223 36.7006 132.674 37.592C132.126 38.4834 131.385 39.1554 130.453 39.608C129.534 40.0606 128.505 40.2869 127.367 40.2869C126.229 40.2869 125.207 40.0674 124.302 39.6286C123.41 39.176 122.704 38.504 122.183 37.6126C121.662 36.7074 121.401 35.6103 121.401 34.3212V25.7017H124.919ZM141.192 40.2869C140.136 40.2869 139.19 40.1154 138.354 39.7726C137.517 39.4297 136.845 38.9223 136.338 38.2503C135.844 37.5783 135.583 36.7692 135.556 35.8229H139.3C139.355 36.3577 139.54 36.7692 139.855 37.0572C140.171 37.3314 140.582 37.4686 141.09 37.4686C141.611 37.4686 142.022 37.352 142.324 37.1189C142.626 36.872 142.776 36.536 142.776 36.1109C142.776 35.7543 142.653 35.4594 142.406 35.2263C142.173 34.9932 141.878 34.8012 141.522 34.6503C141.179 34.4994 140.685 34.328 140.04 34.136C139.108 33.848 138.347 33.56 137.757 33.272C137.167 32.984 136.66 32.5589 136.235 31.9966C135.81 31.4343 135.597 30.7006 135.597 29.7954C135.597 28.4514 136.084 27.4023 137.058 26.648C138.031 25.88 139.3 25.496 140.863 25.496C142.454 25.496 143.736 25.88 144.71 26.648C145.684 27.4023 146.205 28.4583 146.274 29.816H142.468C142.44 29.3497 142.269 28.9863 141.954 28.7257C141.638 28.4514 141.234 28.3143 140.74 28.3143C140.315 28.3143 139.972 28.4309 139.711 28.664C139.451 28.8834 139.32 29.2057 139.32 29.6309C139.32 30.0972 139.54 30.4606 139.979 30.7212C140.418 30.9817 141.103 31.2629 142.036 31.5646C142.968 31.88 143.723 32.1817 144.299 32.4697C144.888 32.7577 145.396 33.176 145.821 33.7246C146.246 34.2732 146.459 34.9794 146.459 35.8434C146.459 36.6663 146.246 37.4137 145.821 38.0857C145.41 38.7577 144.806 39.2926 144.011 39.6903C143.215 40.088 142.276 40.2869 141.192 40.2869Z" fill="white"/>
<path d="M69.2083 17.1583C69.2083 17.6211 69.0565 17.994 68.7531 18.2768C68.4497 18.5597 67.9945 18.7011 67.3877 18.7011H66.3V21H65.76V15.6077H67.3877C67.9894 15.6077 68.442 15.7491 68.7454 16.032C69.054 16.3148 69.2083 16.6903 69.2083 17.1583ZM67.3877 18.2383C68.2311 18.2383 68.6528 17.8783 68.6528 17.1583C68.6528 16.7983 68.5525 16.5257 68.352 16.3406C68.1514 16.1554 67.83 16.0628 67.3877 16.0628H66.3V18.2383H67.3877ZM73.3697 21L72.0352 18.7474H71.04V21H70.5V15.6077H72.12C72.7217 15.6077 73.1769 15.7517 73.4855 16.0397C73.7992 16.3277 73.956 16.7057 73.956 17.1737C73.956 17.5646 73.8429 17.8988 73.6166 18.1766C73.3955 18.4491 73.0663 18.6266 72.6292 18.7088L74.0177 21H73.3697ZM71.04 18.3077H72.1277C72.5495 18.3077 72.8657 18.2048 73.0766 17.9991C73.2926 17.7934 73.4006 17.5183 73.4006 17.1737C73.4006 16.8188 73.2977 16.5463 73.092 16.356C72.8863 16.1606 72.5623 16.0628 72.12 16.0628H71.04V18.3077ZM77.8357 21.054C77.3368 21.054 76.8842 20.9383 76.4779 20.7068C76.0717 20.4703 75.7502 20.1437 75.5137 19.7271C75.2822 19.3054 75.1665 18.8297 75.1665 18.3C75.1665 17.7703 75.2822 17.2971 75.5137 16.8806C75.7502 16.4588 76.0717 16.1323 76.4779 15.9008C76.8842 15.6643 77.3368 15.546 77.8357 15.546C78.3397 15.546 78.7948 15.6643 79.2011 15.9008C79.6074 16.1323 79.9262 16.4588 80.1577 16.8806C80.3891 17.2971 80.5048 17.7703 80.5048 18.3C80.5048 18.8297 80.3891 19.3054 80.1577 19.7271C79.9262 20.1437 79.6074 20.4703 79.2011 20.7068C78.7948 20.9383 78.3397 21.054 77.8357 21.054ZM77.8357 20.5834C78.2368 20.5834 78.5968 20.4908 78.9157 20.3057C79.2345 20.1206 79.4865 19.8557 79.6717 19.5111C79.8568 19.1614 79.9494 18.7577 79.9494 18.3C79.9494 17.8423 79.8568 17.4411 79.6717 17.0966C79.4865 16.752 79.2345 16.4871 78.9157 16.302C78.5968 16.1168 78.2368 16.0243 77.8357 16.0243C77.4345 16.0243 77.0745 16.1168 76.7557 16.302C76.4368 16.4871 76.1848 16.752 75.9997 17.0966C75.8145 17.4411 75.7219 17.8423 75.7219 18.3C75.7219 18.7577 75.8145 19.1614 75.9997 19.5111C76.1848 19.8557 76.4368 20.1206 76.7557 20.3057C77.0745 20.4908 77.4345 20.5834 77.8357 20.5834ZM84.3703 15.6077V19.6886C84.3703 20.1 84.2443 20.4317 83.9923 20.6837C83.7403 20.9306 83.4035 21.054 82.9817 21.054C82.5446 21.054 82.1949 20.9228 81.9326 20.6606C81.6755 20.3931 81.5469 20.0331 81.5469 19.5806H82.0946C82.0997 19.8737 82.1717 20.1128 82.3106 20.298C82.4546 20.4831 82.6783 20.5757 82.9817 20.5757C83.2697 20.5757 83.4832 20.4908 83.622 20.3211C83.7609 20.1514 83.8303 19.9406 83.8303 19.6886V15.6077H84.3703ZM86.6539 16.0474V18.0608H88.6982V18.5083H86.6539V20.5526H88.9296V21H86.1139V15.6H88.9296V16.0474H86.6539ZM90.1325 18.3C90.1325 17.7703 90.2482 17.2971 90.4797 16.8806C90.7111 16.4588 91.0274 16.1323 91.4285 15.9008C91.8297 15.6643 92.2771 15.546 92.7708 15.546C93.3725 15.546 93.8868 15.69 94.3137 15.978C94.7457 16.2608 95.0594 16.662 95.2548 17.1814H94.6222C94.468 16.8163 94.2314 16.5308 93.9125 16.3251C93.5988 16.1194 93.2182 16.0166 92.7708 16.0166C92.3748 16.0166 92.0174 16.1091 91.6985 16.2943C91.3848 16.4794 91.138 16.7468 90.958 17.0966C90.778 17.4411 90.688 17.8423 90.688 18.3C90.688 18.7577 90.778 19.1588 90.958 19.5034C91.138 19.848 91.3848 20.1128 91.6985 20.298C92.0174 20.4831 92.3748 20.5757 92.7708 20.5757C93.2182 20.5757 93.5988 20.4754 93.9125 20.2748C94.2314 20.0691 94.468 19.7863 94.6222 19.4263H95.2548C95.0594 19.9406 94.7457 20.3391 94.3137 20.622C93.8817 20.9048 93.3674 21.0463 92.7708 21.0463C92.2771 21.0463 91.8297 20.9306 91.4285 20.6991C91.0274 20.4626 90.7111 20.136 90.4797 19.7194C90.2482 19.3028 90.1325 18.8297 90.1325 18.3ZM99.8717 15.6077V16.0551H98.3751V21H97.8351V16.0551H96.3308V15.6077H99.8717Z" fill="white"/>
</svg>
